# xmcd
#
# Track frame offsets: 
#        150
#        22684
#        53214
#        69367
#        91034
#        108653
#        129473
#        148056
#        167625
#        190235
#        207386
#        224329
#        254963
#        270938
#        289537
#        304688
#
# Disc length: 4274 seconds
#
# Revision: 0
# Processed by: cddbd v1.5.2PL0 Copyright (c) Steve Scherf et al.
# Submitted via: ExactAudioCopyFreeDBPlugin 1.0
#
DISCID=e910b010
DTITLE=Bobby Bland - Unmatched The Very Best
DYEAR=2011
DGENRE=Blues
TTITLE0=I Just Tripped On A Piece Of Your Broken Heart
TTITLE1=I'm A Blues Man
TTITLE2=I Need Your Love So Bad
TTITLE3=Tonight's The Night (It's Gonne Be Alright)
TTITLE4=Ain't No Sunshine
TTITLE5=If I Don't Get Involved
TTITLE6=Members Only
TTITLE7=I Just Won't Be Your Fool Anymore
TTITLE8=The Truth Will Set You Free
TTITLE9=Get Your Money Where You Spend Your Time
TTITLE10=Second Hand Heart
TTITLE11=Sad Street
TTITLE12=When Hearts Grow Cold
TTITLE13=There's No Easy Way To Say Goodbye
TTITLE14=After All
TTITLE15=Heart Open Up Again
EXTD=
EXTT0=
EXTT1=
EXTT2=
EXTT3=
EXTT4=
EXTT5=
EXTT6=
EXTT7=
EXTT8=
EXTT9=
EXTT10=
EXTT11=
EXTT12=
EXTT13=
EXTT14=
EXTT15=
PLAYORDER=
